<svg xmlns="http://www.w3.org/2000/svg" width="22.04" height="18.396" viewBox="0 0 22.04 18.396"><g transform="translate(-0.5 -3.5)"><path d="M21.54,19.075A1.822,1.822,0,0,1,19.718,20.9H3.322A1.822,1.822,0,0,1,1.5,19.075V9.055A1.822,1.822,0,0,1,3.322,7.233H6.965L8.787,4.5h5.465l1.822,2.733h3.644A1.822,1.822,0,0,1,21.54,9.055Z" fill="none" stroke="#fff" stroke-linecap="round" stroke-linejoin="round" stroke-width="2"/><path d="M19.287,17.144A3.644,3.644,0,1,1,15.644,13.5,3.644,3.644,0,0,1,19.287,17.144Z" transform="translate(-4.124 -3.535)" fill="none" stroke="#fff" stroke-linecap="round" stroke-linejoin="round" stroke-width="2"/></g></svg>