<svg xmlns="http://www.w3.org/2000/svg" width="17.856" height="21.5" viewBox="0 0 17.856 21.5"><g transform="translate(-9201.5 689.49)"><g transform="translate(9202 -685.329)"><path d="M8.428,0a8.419,8.419,0,1,0,8.428,8.419A8.424,8.424,0,0,0,8.428,0Zm0,15.786A7.367,7.367,0,1,1,15.8,8.419,7.371,7.371,0,0,1,8.428,15.786Z" fill="#fff" stroke="#fff" stroke-width="1"/><g transform="translate(4.61 4.545)"><g transform="translate(0 0)"><circle cx="1.031" cy="1.031" r="1.031" fill="#fff" stroke="#fff" stroke-width="1"/></g></g><g transform="translate(10.244 4.545)"><g transform="translate(0 0)"><circle cx="1.031" cy="1.031" r="1.031" fill="#fff" stroke="#fff" stroke-width="1"/></g></g><g transform="translate(4.609 9.528)"><path d="M119.1,256a3.12,3.12,0,0,1-6.212,0H112a4.011,4.011,0,0,0,7.987,0Z" transform="translate(-112 -256)" fill="#fff" stroke="#fff" stroke-width="1"/></g></g><path d="M428.424,213.707a1.973,1.973,0,0,1-1.011,1.011,1.011,1.011,0,0,0,2.021,0A1.973,1.973,0,0,1,428.424,213.707Z" transform="translate(8789.515 -900.046)" fill="#fff"/><path d="M369.386,1.517A2.959,2.959,0,0,1,367.87,0a2.959,2.959,0,0,1-1.516,1.516,2.959,2.959,0,0,1,1.516,1.516A2.959,2.959,0,0,1,369.386,1.517Z" transform="translate(8846.279 -689.491)" fill="#fff"/></g></svg>