<svg xmlns="http://www.w3.org/2000/svg" width="34.249" height="34.249" viewBox="0 0 34.249 34.249">
  <path id="Icon_ionic-md-call" data-name="Icon ionic-md-call" d="M22.872,16.818a15.791,15.791,0,0,1-4.776-.74,1.258,1.258,0,0,0-1.345.336l-2.96,2.96a20.232,20.232,0,0,1-8.88-8.88l2.96-2.96a1.4,1.4,0,0,0,.336-1.345A14.632,14.632,0,0,1,7.4,1.345,1.349,1.349,0,0,0,6.054,0H1.345A1.349,1.349,0,0,0,0,1.345,22.853,22.853,0,0,0,22.872,24.218a1.35,1.35,0,0,0,1.345-1.345V18.163A1.35,1.35,0,0,0,22.872,16.818Z" transform="translate(34.249 17.124) rotate(135)" fill="#fff"/>
</svg>
