<svg xmlns="http://www.w3.org/2000/svg" width="21.265" height="21.265" viewBox="0 0 21.265 21.265"><g transform="translate(1.414 1.412)"><path d="M1.5,1.5,19.937,19.937" transform="translate(-1.5 -1.497)" fill="none" stroke="#fff" stroke-linecap="round" stroke-linejoin="round" stroke-width="2"/><path d="M13.5,8.2v2.514a2.514,2.514,0,0,0,4.291,1.777m.737-4.006V4.012a2.514,2.514,0,0,0-4.978-.5" transform="translate(-6.796 -1.495)" fill="none" stroke="#fff" stroke-linecap="round" stroke-linejoin="round" stroke-width="2"/><path d="M17.556,20.824A5.866,5.866,0,0,1,7.5,16.676V15m11.732,0v1.676a5.866,5.866,0,0,1-.092,1.031" transform="translate(-4.148 -7.455)" fill="none" stroke="#fff" stroke-linecap="round" stroke-linejoin="round" stroke-width="2"/><path d="M18,28.5v3.352" transform="translate(-8.782 -13.413)" fill="none" stroke="#fff" stroke-linecap="round" stroke-linejoin="round" stroke-width="2"/><path d="M12,34.5h6.7" transform="translate(-6.134 -16.061)" fill="none" stroke="#fff" stroke-linecap="round" stroke-linejoin="round" stroke-width="2"/></g></svg>