<svg xmlns="http://www.w3.org/2000/svg" width="23.664" height="21.37" viewBox="0 0 23.664 21.37">
  <path id="switch_camera" data-name="switch camera" d="M16.223,11.7H13.865a.925.925,0,0,1,0-1.85h1.079a3.931,3.931,0,0,0-6.821.164A.925.925,0,1,1,6.5,9.134a5.768,5.768,0,0,1,9.724-.682V7.54a.924.924,0,1,1,1.849,0V9.852a1.852,1.852,0,0,1-1.849,1.85Zm6.517,2.267a.925.925,0,0,0,.924-.925V7.031a3.7,3.7,0,0,0-3.7-3.7h-1.4a.925.925,0,0,1-.875-.627l-.28-.822A2.772,2.772,0,0,0,14.783,0H8.878A2.78,2.78,0,0,0,6.269,1.833l-.32.887a.927.927,0,0,1-.87.611H3.7A3.7,3.7,0,0,0,0,7.031V17.67a3.7,3.7,0,0,0,3.7,3.7H19.966a3.7,3.7,0,0,0,3.7-3.7.924.924,0,1,0-1.849,0,1.852,1.852,0,0,1-1.849,1.85H3.7a1.852,1.852,0,0,1-1.849-1.85V7.031A1.852,1.852,0,0,1,3.7,5.181H5.08A2.78,2.78,0,0,0,7.688,3.348l.32-.887a.927.927,0,0,1,.87-.611h5.905a.924.924,0,0,1,.875.627l.28.822a2.773,2.773,0,0,0,2.625,1.881h1.4a1.852,1.852,0,0,1,1.849,1.85v6.013A.925.925,0,0,0,22.739,13.969Zm-12.156-.786a.925.925,0,0,0-.924-.925H7.3a1.852,1.852,0,0,0-1.849,1.85v2.313a.924.924,0,1,0,1.849,0V15.5a5.8,5.8,0,0,0,1.181,1.2,5.776,5.776,0,0,0,8.552-1.869.924.924,0,1,0-1.625-.882,3.932,3.932,0,0,1-6.822.164H9.659a.925.925,0,0,0,.924-.925Zm0,0" transform="translate(0.001 0)" fill="#fff"/>
</svg>
